<svg xmlns="http://www.w3.org/2000/svg" xmlns:xlink="http://www.w3.org/1999/xlink" viewBox="0 0 229 286"><path d="M 67.913 92.091 C 64.586 92.091 61.26 92.739 58.312 94.171 C 49.711 98.009 45.681 105.088 45.681 114.384 L 45.681 130.246 C 45.681 135.866 46.384 141.514 47.737 146.891 L 55.364 177.237 C 57.879 187.451 66.993 194.612 77.568 194.612 L 137.422 194.612 C 150.079 194.612 160.384 184.317 160.384 171.697 L 160.384 135.785 L 181.777 79.58 C 182.778 76.958 183.319 74.202 183.319 71.419 C 183.319 58.8 173.014 48.504 160.384 48.504 C 150.864 48.504 142.263 54.422 138.963 63.285 L 137.422 67.204 L 137.422 57.097 C 137.422 44.478 127.117 34.183 114.486 34.183 C 101.856 34.183 91.551 44.478 91.551 57.097 L 91.551 80.471 C 90.118 80.201 88.684 80.012 87.251 80.012 C 79.002 80.012 71.483 84.768 67.886 92.091 Z M 87.251 91.469 C 91.2 91.469 94.797 93.793 96.393 97.387 L 103.019 111.979 L 109.375 125.868 L 104.452 125.868 C 98.448 125.868 93.174 130.057 91.903 135.893 L 78.109 105.629 C 77.487 104.359 77.217 102.926 77.217 101.494 C 77.217 95.955 81.707 91.469 87.251 91.469 Z M 67.453 103.575 C 74.269 103.575 76.405 109.033 78.84 114.411 L 90.659 140.352 C 91.281 141.622 91.551 143.054 91.551 144.486 C 91.551 150.026 87.089 154.511 81.517 154.511 C 77.568 154.511 73.998 152.187 72.376 148.594 L 58.041 117.086 C 57.608 116.194 57.23 114.762 57.23 113.681 C 57.23 107.682 61.53 103.548 67.453 103.548 Z M 171.851 71.419 C 171.851 72.851 171.581 74.202 171.121 75.553 L 148.916 133.731 L 148.916 139.92 L 139.775 129.975 C 137.34 127.381 133.852 125.868 130.254 125.868 L 112.539 125.868 L 103.019 105.007 L 103.019 57.097 C 103.019 50.747 108.131 45.64 114.486 45.64 C 120.869 45.64 125.981 50.747 125.981 57.097 L 125.981 114.411 L 131.715 114.411 L 149.619 67.312 C 151.323 62.907 155.624 59.962 160.384 59.962 C 166.74 59.962 171.851 65.15 171.851 71.419 Z M 77.568 183.155 C 72.294 183.155 67.724 179.561 66.48 174.481 L 58.852 144.108 C 57.689 139.649 57.149 134.893 57.149 130.246 L 57.149 122.085 L 69.779 149.837 C 71.835 154.403 76.514 157.376 81.517 157.376 C 87.792 157.376 93.255 152.809 94.256 146.54 C 96.663 149.674 100.422 151.647 104.452 151.647 L 123.114 151.647 L 123.114 148.783 L 104.452 148.783 C 98.989 148.783 94.067 144.297 94.067 138.758 C 94.067 133.299 98.178 128.732 103.749 128.732 L 130.254 128.732 C 133.04 128.732 135.718 129.894 137.611 131.948 L 148.889 144.108 L 148.889 171.697 C 148.889 178.047 143.805 183.155 137.422 183.155 Z" fill="rgb(0,0,0)"></path></svg>