<svg xmlns="http://www.w3.org/2000/svg" id="Layer_1" data-name="Layer 1" width="382.84486" height="67.3935" viewBox="0 0 382.84486 67.3935"><defs><style>.cls-1{fill:#000;}.cls-2{fill:#b8d332;}.cls-3{fill:#4285f4;}.cls-4{fill:#ef3f4f;}.cls-5{fill:#ef0;}.cls-6{fill:#f9570f;}</style></defs><path class="cls-1" d="M17.92934,50.03623a22.75009,22.75009,0,0,1-10.51585-2.221A24.43,24.43,0,0,1,.00085,41.98314l6.137-5.96973a17.58237,17.58237,0,0,0,5.551,4.40174A15.13728,15.13728,0,0,0,18.481,41.928q4.205,0,6.34384-1.82255a6.12944,6.12944,0,0,0,2.13785-4.91705,5.59462,5.59462,0,0,0-1.37926-3.91989q-1.3801-1.51244-5.17164-2.2005l-4.55117-.68746Q1.44781,26.08992,1.44878,14.29472A14.009,14.009,0,0,1,2.65569,8.39635a12.53231,12.53231,0,0,1,3.48214-4.51,16.10576,16.10576,0,0,1,5.4821-2.88049A24.29189,24.29189,0,0,1,18.89468,0a23.286,23.286,0,0,1,9.516,1.80616,18.70506,18.70506,0,0,1,6.96453,5.34622l-6.206,5.90249a14.30847,14.30847,0,0,0-4.34436-3.5723,13.4227,13.4227,0,0,0-6.41278-1.3742q-3.9306,0-5.89573,1.47713a4.89763,4.89763,0,0,0-1.96524,4.15586,4.94722,4.94722,0,0,0,1.58583,4.05415,11.15789,11.15789,0,0,0,5.10294,1.9233l4.482.83257q7.30838,1.319,10.7916,4.68351,3.48119,3.36549,3.48239,9.40007a15.767,15.767,0,0,1-1.20668,6.27826,13.57566,13.57566,0,0,1-3.51684,4.85653,16.00817,16.00817,0,0,1-5.65445,3.15649A24.39985,24.39985,0,0,1,17.92934,50.03623Z" transform="translate(-0.00001 0.00564)"></path><path class="cls-1" d="M45.09753,49.20462V.83162H66.74969a15.78862,15.78862,0,0,1,5.96467,1.0741,12.634,12.634,0,0,1,4.51671,3.04947,13.11552,13.11552,0,0,1,2.82727,4.74716,19.85541,19.85541,0,0,1,0,12.23185,13.15234,13.15234,0,0,1-2.82722,4.71244,12.62177,12.62177,0,0,1-4.51678,3.04944,15.76512,15.76512,0,0,1-5.96467,1.0741h-12.55V49.20462Zm9.10212-26.33494H65.92218A5.81133,5.81133,0,0,0,70.05973,21.449a5.28447,5.28447,0,0,0,1.5169-4.05414V14.207a5.17478,5.17478,0,0,0-1.5169-4.01943A5.90434,5.90434,0,0,0,65.92218,8.8013H54.19965Z" transform="translate(-0.00001 0.00564)"></path><path class="cls-1" d="M108.19168,50.03623a22.39977,22.39977,0,0,1-8.61955-1.594A17.13639,17.13639,0,0,1,92.987,43.66037a22.75206,22.75206,0,0,1-4.241-7.83108,34.84071,34.84071,0,0,1-1.51691-10.81114A34.93111,34.93111,0,0,1,88.746,14.24173a22.7268,22.7268,0,0,1,4.241-7.86579,17.15876,17.15876,0,0,1,6.58511-4.78186,24.10147,24.10147,0,0,1,17.23909,0,17.46453,17.46453,0,0,1,6.61983,4.78186,22.03507,22.03507,0,0,1,4.24072,7.86579,35.705,35.705,0,0,1,1.48267,10.77642,35.61221,35.61221,0,0,1-1.48267,10.81114,22.05445,22.05445,0,0,1-4.24072,7.83108,17.44149,17.44149,0,0,1-6.61983,4.78186A22.40227,22.40227,0,0,1,108.19168,50.03623Zm0-8.10829a10.45426,10.45426,0,0,0,8.24039-3.46527q3.06754-3.46455,3.06851-9.70232V21.27588q0-6.23739-3.06851-9.70232a11.53012,11.53012,0,0,0-16.30511-.1754q-.08865.08674-.1754.1754-3.069,3.466-3.06853,9.70232v7.48447q0,6.2374,3.06853,9.70232A10.4527,10.4527,0,0,0,108.19168,41.92794Z" transform="translate(-0.00001 0.00564)"></path><path class="cls-1" d="M147.49607,49.20462h-9.10213V.83162H160.115a15.97492,15.97492,0,0,1,5.93021,1.03963A11.99484,11.99484,0,0,1,170.493,4.88576a13.80215,13.80215,0,0,1,2.82722,4.7474,18.09832,18.09832,0,0,1,.99986,6.16787,15.94942,15.94942,0,0,1-2.241,8.59327,12.23214,12.23214,0,0,1-6.72324,5.12848l9.86069,19.68185H165.07985l-8.96423-18.64222h-8.61955ZM159.2186,22.86968a5.81132,5.81132,0,0,0,4.13754-1.42073,5.28444,5.28444,0,0,0,1.51691-4.05414V14.207a5.17472,5.17472,0,0,0-1.51691-4.01943A5.90435,5.90435,0,0,0,159.2186,8.8013H147.49607V22.86968Z" transform="translate(-0.00001 0.00564)"></path><path class="cls-1" d="M201.41988,8.9399V49.20462h-9.10213V8.9399h-13.6533V.83161h36.4087V8.9399Z" transform="translate(-0.00001 0.00564)"></path><path class="cls-1" d="M222.51954,49.20462V.83162H244.1717a15.78853,15.78853,0,0,1,5.96466,1.0741,12.63407,12.63407,0,0,1,4.51672,3.04947,13.11538,13.11538,0,0,1,2.82727,4.74716,19.85526,19.85526,0,0,1,0,12.23185,13.15232,13.15232,0,0,1-2.82721,4.71244,12.62167,12.62167,0,0,1-4.51672,3.04946,15.76553,15.76553,0,0,1-5.96466,1.0741h-12.55V49.20462Zm9.10211-26.33494h11.72253a5.81129,5.81129,0,0,0,4.13754-1.42073,5.28437,5.28437,0,0,0,1.51691-4.05414V14.207a5.17472,5.17472,0,0,0-1.51691-4.01943,5.9043,5.9043,0,0,0-4.13754-1.38625h-11.7225Z" transform="translate(-0.00001 0.00564)"></path><path class="cls-1" d="M292.02768,49.20462l-3.86154-12.33574H271.06491l-3.79257,12.33574h-9.24023L274.16794.83162h11.3089l15.99771,48.373ZM279.75339,9.14792h-.34469l-6.13727,19.88963h12.68792Z" transform="translate(-0.00001 0.00564)"></path><path class="cls-1" d="M323.54029,50.03623a22.75007,22.75007,0,0,1-10.51584-2.221,24.42962,24.42962,0,0,1-7.41263-5.83209l6.137-5.96973a17.58237,17.58237,0,0,0,5.551,4.40174A15.13724,15.13724,0,0,0,324.092,41.928q4.205,0,6.34385-1.82255a6.12947,6.12947,0,0,0,2.13784-4.91708,5.59468,5.59468,0,0,0-1.37927-3.9199q-1.3801-1.51243-5.17163-2.2005l-4.55118-.68746q-14.41282-2.29053-14.41186-14.08574a14.00857,14.00857,0,0,1,1.20691-5.89838,12.5324,12.5324,0,0,1,3.48214-4.51,16.1056,16.1056,0,0,1,5.48209-2.88048A24.29126,24.29126,0,0,1,324.50562,0a23.28568,23.28568,0,0,1,9.516,1.80616,18.70487,18.70487,0,0,1,6.96454,5.34614l-6.206,5.90249a14.30822,14.30822,0,0,0-4.34437-3.5723,13.42241,13.42241,0,0,0-6.41278-1.3742q-3.93063,0-5.89572,1.47713a4.89767,4.89767,0,0,0-1.96524,4.15586,4.9472,4.9472,0,0,0,1.58585,4.05415,11.158,11.158,0,0,0,5.10293,1.9233l4.482.83257q7.30838,1.319,10.79159,4.68351,3.48116,3.36549,3.4824,9.40006a15.76738,15.76738,0,0,1-1.20667,6.27827,13.5756,13.5756,0,0,1-3.51685,4.85658,16.00813,16.00813,0,0,1-5.65444,3.15649A24.4,24.4,0,0,1,323.54029,50.03623Z" transform="translate(-0.00001 0.00564)"></path><path class="cls-1" d="M364.77665,50.03623a22.75017,22.75017,0,0,1-10.51584-2.221,24.42962,24.42962,0,0,1-7.41263-5.83209l6.137-5.96973a17.58237,17.58237,0,0,0,5.551,4.40174,15.13724,15.13724,0,0,0,6.79217,1.5128q4.205,0,6.34384-1.82255A6.12944,6.12944,0,0,0,373.81,35.18832a5.59468,5.59468,0,0,0-1.37927-3.9199q-1.38012-1.51243-5.17163-2.2005l-4.55118-.68746q-14.41282-2.29053-14.41187-14.08574A14.00885,14.00885,0,0,1,349.503,8.39634a12.53242,12.53242,0,0,1,3.48215-4.51,16.1056,16.1056,0,0,1,5.48209-2.88048A24.29121,24.29121,0,0,1,365.74195,0a23.28568,23.28568,0,0,1,9.516,1.80616,18.70477,18.70477,0,0,1,6.96454,5.34614l-6.206,5.90249a14.30818,14.30818,0,0,0-4.34436-3.5723,13.42244,13.42244,0,0,0-6.41278-1.3742q-3.93063,0-5.89575,1.47713a4.89765,4.89765,0,0,0-1.96524,4.15586,4.9472,4.9472,0,0,0,1.586,4.05418,11.158,11.158,0,0,0,5.10293,1.9233l4.482.83257q7.30838,1.319,10.79159,4.68351,3.48116,3.36549,3.4824,9.40006a15.76738,15.76738,0,0,1-1.20667,6.27827,13.5756,13.5756,0,0,1-3.51685,4.85658,16.008,16.008,0,0,1-5.65444,3.15649A24.40024,24.40024,0,0,1,364.77665,50.03623Z" transform="translate(-0.00001 0.00564)"></path><rect class="cls-1" x="108.19201" y="58.22637" width="274.65094" height="9.16711"></rect><rect class="cls-2" y="58.22639" width="21.6384" height="9.16711"></rect><rect class="cls-3" x="21.6384" y="58.22639" width="21.6384" height="9.16711"></rect><rect class="cls-4" x="43.27679" y="58.22639" width="21.6384" height="9.16711"></rect><rect class="cls-5" x="64.91519" y="58.22639" width="21.6384" height="9.16711"></rect><rect class="cls-6" x="86.5536" y="58.22638" width="21.6384" height="9.16711"></rect></svg>